<svg xmlns="http://www.w3.org/2000/svg" width="114.922" height="140" viewBox="0 0 114.922 140">
  <g>
    <path d="M86.792,104.9,80.6,124.72V138H40.1V111.7l-3.81.87a10,10,0,0,1-11.5-6l-9.57-23.82L7.252,81a6.64,6.64,0,0,1-5.1-7.882c.03-.141.065-.28.1-.418l7.6-26.49C11.352,21.54,31.482,2,56.1,2c25.6,0,46.35,21.12,46.35,47.17a48.736,48.736,0,0,1-.55,7.3" fill="none" stroke="#000" stroke-linecap="round" stroke-linejoin="round" stroke-width="4"/>
    <path d="M85.032,39l-3-5.19a4.11,4.11,0,0,0-5.59-1.49l-5.41,3.09a4.09,4.09,0,0,1-6.14-3.52V25.71a4.08,4.08,0,0,0-4.09-4.07h-6a4.08,4.08,0,0,0-4.09,4.07h0v6.18a4.09,4.09,0,0,1-6.14,3.52L39.2,32.32a4.11,4.11,0,0,0-5.59,1.49l-3,5.19a4.06,4.06,0,0,0,1.472,5.55l.018.01,5.38,3.09a4.06,4.06,0,0,1,0,7.05L32.1,57.79a4.06,4.06,0,0,0-1.5,5.542l.01.018,3,5.19A4.1,4.1,0,0,0,39.192,70l5.37-3.09a4.1,4.1,0,0,1,6.14,3.53v6.17a4.08,4.08,0,0,0,4.09,4.07h6a4.08,4.08,0,0,0,4.09-4.07h0V70.47a4.1,4.1,0,0,1,6.15-3.53L76.412,70a4.1,4.1,0,0,0,5.614-1.45l.006-.01,3-5.19a4.07,4.07,0,0,0-1.5-5.558l0,0-5.39-3.09a4.069,4.069,0,0,1,0-7.05l5.38-3.09a4.071,4.071,0,0,0,1.514-5.553Z" fill="none" stroke="#000" stroke-linecap="round" stroke-linejoin="round" stroke-width="4"/>
    <ellipse cx="57.802" cy="51.18" rx="11.48" ry="11.43" fill="none" stroke="#000" stroke-linecap="round" stroke-linejoin="round" stroke-width="4"/>
    <line x1="63.822" y1="96.19" x2="73.472" y2="96.19" fill="none" stroke="#000" stroke-linecap="round" stroke-linejoin="round" stroke-width="4"/>
    <line x1="89.252" y1="96.19" x2="112.922" y2="96.19" fill="none" stroke="#000" stroke-linecap="round" stroke-linejoin="round" stroke-width="4"/>
    <line x1="78.332" y1="84.11" x2="112.922" y2="84.11" fill="none" stroke="#000" stroke-linecap="round" stroke-linejoin="round" stroke-width="4"/>
    <line x1="90.772" y1="72.04" x2="112.922" y2="72.04" fill="none" stroke="#000" stroke-linecap="round" stroke-linejoin="round" stroke-width="4"/>
    <line x1="112.922" y1="62.68" x2="106.242" y2="62.68" fill="none" stroke="#000" stroke-linecap="round" stroke-linejoin="round" stroke-width="4"/>
  </g>
</svg>
