<svg xmlns="http://www.w3.org/2000/svg" version="1.1" xmlns:xlink="http://www.w3.org/1999/xlink" xmlns:svgjs="http://svgjs.dev/svgjs" viewBox="0 0 800 800"><defs><linearGradient x1="50%" y1="0%" x2="50%" y2="100%" id="ccchaos-grad"><stop stop-color="hsl(206, 75%, 49%)" stop-opacity="1" offset="0%"></stop><stop stop-color="hsl(331, 90%, 56%)" stop-opacity="1" offset="100%"></stop></linearGradient></defs><g stroke-width="2" stroke="url(#ccchaos-grad)" fill="none" stroke-linecap="round"><path d="M416.59 95.12C426.86 94.88 437.47 95.78 448.41 97.76 459.36 100.35 470.63 103.92 482.14 108.36 493.63 113.21 505.27 118.76 516.94 124.9 528.42 131.17 539.71 137.83 550.62 144.77 561.03 151.58 570.72 158.51 579.42 165.5 587.24 172.14 593.7 178.74 598.56 185.26 603.24 194.32 602.31 211.27 597.58 219.27 592.08 226.68 584.57 241.46 586.28 249.09 591.19 254.04 599.02 259.28 609.88 264.84 623.68 270.28 639.82 276.1 657.52 282.29 675.83 288.43 693.55 294.97 709.34 301.93 722.23 308.85 730.97 316.2 734.69 323.96 733.52 331.7 727.06 339.86 715.83 348.43 701.56 356.99 685 365.97 667.83 375.38 652.48 384.79 640.15 394.43 631.92 404.28 628.72 414.17 630.24 424.31 635.94 434.7 645.55 445.17 657.31 455.94 669.82 466.99 682.48 478.18 693.28 489.69 701.2 501.51 706.16 513.48 707.03 525.77 703.77 538.32 696.96 550.97 686.61 563.82 673.44 576.79 658.24 589.7 641.67 602.57 624.57 615.23 607.48 627.58 591.07 639.48 575.8 650.7 561.86 661.25 549.5 670.83 538.75 679.21 529.6 686.53 521.84 692.37 515.2 696.54 507.37 699.96 494.7 695.81 488.46 688.57 484.36 682.44 479.69 675.14 474.33 666.96 468.93 658.88 462.76 650.62 455.8 642.54 448.76 635.63 440.94 629.63 432.37 624.89 423.76 622.16 414.44 621.14 404.46 621.96 394.48 625.08 384.13 629.85 373.47 636 362.87 643.79 352 652.29 340.97 661.11 330.03 670.48 318.97 679.4 307.89 687.47 296.99 695.05 286.16 701.19 275.52 705.67 265.19 708.94 255.19 710.27 245.65 709.65 236.57 707.58 228.1 703.59 220.36 697.85 213.18 690.81 206.81 682.28 201.32 672.5 196.33 661.82 192.14 650.22 188.72 637.97 185.5 625.26 182.8 612.2 180.48 598.99 177.89 585.68 175.33 572.42 172.64 559.35 169.23 546.41 165.44 533.74 161.21 521.42 156.11 509.31 150.6 497.55 144.78 486.15 138.45 474.96 132.17 464.09 126.18 453.53 120.37 443.11 115.34 432.94 111.34 423 108.15 413.14 106.28 403.46 105.8 393.94 106.23 384.45 107.91 375.08 110.7 365.85 113.81 356.62 117.42 347.72 121.22 339.18 124.52 330.62 127.56 322.41 130.23 314.57 131.96 306.73 133.26 299.27 134.22 292.21 134.47 285.16 134.71 278.52 135.14 272.31 135.52 266.09 136.56 260.29 138.41 254.91 140.85 249.49 144.4 244.45 149.09 239.79 154.63 235.01 161.3 230.54 168.97 226.35 177.33 221.93 186.46 217.7 196.16 213.62 206.14 209.19 216.39 204.81 226.76 200.44 237.01 195.62 247.16 190.73 257.15 185.76 266.77 180.28 276.17 174.7 285.36 169.01 294.12 162.86 302.74 156.65 311.26 150.45 319.43 143.94 327.63 137.55 335.94 131.38 343.99 125.15 352.28 119.32 360.85 114.01 369.29 108.94 378.11 104.58 387.38 101.06 396.59 98.05 406.31 96.05 416.58 95.12" stroke-dasharray="6 3" transform="rotate(0, 400, 400)" opacity="0.69"></path><path d="M425.26 105.26C435.34 105 445.62 105.84 456.07 107.73 466.52 110.21 477.12 113.65 487.77 117.93 498.34 122.64 508.86 128.03 519.18 134.01 529.25 140.15 538.91 146.7 547.96 153.56 556.49 160.32 564.14 167.25 570.67 174.25 576.41 180.96 580.8 187.66 583.7 194.3 585.7 200.54 586.2 206.7 585.26 212.76 583.8 218.4 581.32 223.97 578.18 229.5 574.29 237.22 572.57 252.45 577.77 260.18 584.79 265.17 594.43 270.4 606.66 275.91 621.22 281.26 637.5 286.95 654.71 292.99 671.97 298.93 688.2 305.26 702.24 311.98 713.32 318.65 720.38 325.72 722.74 333.21 720.67 340.67 713.84 348.55 702.76 356.86 689.07 365.15 673.35 373.89 657.11 383.07 642.53 392.26 630.64 401.71 622.4 411.4 618.69 421.12 619.26 431.12 623.71 441.38 631.91 451.7 642.33 462.33 653.79 473.23 665.81 484.23 676.55 495.53 685.04 507.09 691.21 518.74 693.84 530.64 692.79 542.72 688.5 554.83 680.77 567.04 670.12 579.24 657.24 591.32 642.59 603.23 626.91 614.82 610.72 626.03 594.62 636.69 579.12 646.61 564.43 655.84 550.91 664.05 538.7 671.06 527.79 677.08 518.18 681.67 509.72 684.69 502.4 686.55 495.9 686.77 489.95 685.3 484.73 682.79 479.69 678.76 474.62 673.32 469.86 667.31 464.79 660.31 459.28 652.6 453.83 645.09 447.81 637.48 441.15 630.11 434.47 623.86 427.12 618.46 419.09 614.22 411.04 611.84 402.33 611.01 393 611.83 383.67 614.75 373.98 619.15 364.01 624.81 354.09 631.99 343.96 639.84 333.69 648.02 323.54 656.78 313.33 665.18 303.17 672.89 293.21 680.25 283.41 686.37 273.89 691.04 264.69 694.7 255.89 696.63 247.62 696.79 239.79 695.68 232.59 692.8 226.11 688.25 220.12 682.52 214.88 675.33 210.41 666.88 206.31 657.54 202.87 647.23 200.03 636.18 197.23 624.61 194.77 612.58 192.51 600.27 189.85 587.77 187.09 575.2 184.09 562.69 180.32 550.21 176.14 537.91 171.5 525.86 166.05 513.95 160.23 502.33 154.18 491.02 147.71 479.88 141.37 469.03 135.4 458.5 129.69 448.08 124.81 437.93 120.98 428.05 118 418.23 116.33 408.64 116.04 399.25 116.65 389.9 118.49 380.73 121.41 371.74 124.66 362.76 128.4 354.17 132.33 345.95 135.77 337.73 138.97 329.88 141.78 322.43 143.68 314.96 145.11 307.89 146.16 301.22 146.45 294.53 146.64 288.24 146.92 282.36 147.35 273.68 152.2 258.12 157.47 251.13 162.13 246.42 167.9 241.97 174.7 237.75 182.23 233.27 190.62 228.94 199.69 224.71 209.17 220.13 219.08 215.57 229.25 210.99 239.46 205.98 249.72 200.89 259.92 195.71 269.91 190.07 279.75 184.32 289.41 178.5 298.76 172.26 307.95 165.99 317.01 159.75 325.78 153.25 334.5 146.89 343.25 140.78 351.77 134.64 360.42 128.91 369.26 123.7 377.97 118.75 386.95 114.5 396.26 111.06 405.53 108.13 415.18 106.17 425.25 105.26" stroke-dasharray="11 1" transform="rotate(4.04, 400, 400)" opacity="0.89"></path><path d="M430.79 115.39C440.58 115.12 450.42 115.9 460.25 117.69 470.07 120.06 479.84 123.36 489.46 127.48 498.99 132.01 508.25 137.23 517.12 143.04 525.71 149.03 533.72 155.44 540.97 162.17 547.73 168.86 553.53 175.74 558.2 182.72 562.22 189.47 564.99 196.23 566.47 202.96 567.35 209.35 567.05 215.66 565.71 221.9 563.27 230.64 558.4 247.32 558.42 255.4 560.73 260.49 564.89 265.67 571.21 270.99 580.02 276.08 591.09 281.36 604.25 286.87 619.16 292.23 635.22 297.86 651.65 303.81 667.66 309.65 682.31 315.84 694.58 322.39 703.92 328.87 709.41 335.75 710.54 343.02 707.69 350.26 700.58 357.91 689.71 365.99 676.6 374.05 661.73 382.56 646.4 391.52 632.58 400.49 621.13 409.73 612.92 419.22 608.78 428.74 608.49 438.53 611.79 448.59 618.63 458.69 627.71 469.08 638.03 479.72 649.25 490.42 659.7 501.38 668.46 512.54 675.49 523.74 679.55 535.11 680.39 546.58 678.39 558.01 673.13 569.44 664.99 580.77 654.56 591.9 642.1 602.76 628.22 613.22 613.42 623.25 598.22 632.66 583.11 641.28 568.32 649.21 554.27 656.12 541.17 661.85 529.01 666.65 517.96 670.11 507.97 672.11 498.98 673.09 490.86 672.58 483.44 670.57 476.75 667.69 470.45 663.49 464.35 658.08 458.65 652.25 452.89 645.6 446.93 638.39 441.12 631.46 434.95 624.5 428.33 617.8 421.74 612.18 414.63 607.37 406.99 603.6 399.33 601.55 391.13 600.88 382.41 601.7 373.68 604.42 364.67 608.48 355.46 613.67 346.29 620.26 336.97 627.49 327.6 635.03 318.34 643.18 309.11 651.06 300.01 658.37 291.12 665.46 282.46 671.49 274.14 676.26 266.13 680.21 258.58 682.62 251.57 683.45 244.95 683.17 238.95 681.27 233.64 677.83 228.69 673.3 224.41 667.36 220.78 660.2 217.36 652.18 214.45 643.16 211.97 633.33 209.37 622.96 206.95 612.03 204.59 600.72 201.7 589.14 198.62 577.39 195.22 565.58 191.03 553.73 186.42 541.95 181.37 530.33 175.59 518.78 169.5 507.45 163.26 496.38 156.71 485.42 150.36 474.73 144.46 464.33 138.91 454.02 134.22 443.98 130.61 434.21 127.86 424.5 126.41 415.04 126.31 405.82 127.1 396.62 129.09 387.65 132.12 378.9 135.49 370.15 139.33 361.82 143.37 353.9 146.95 345.96 150.3 338.43 153.27 331.29 155.34 324.13 156.94 317.36 158.11 311 158.6 301.59 159 284.57 160.05 276.91 162.32 269.4 172.64 255.52 180.92 248.96 187.52 244.38 195.02 239.9 203.29 235.5 212.08 230.74 221.41 225.97 231.12 221.18 241.05 215.97 251.15 210.69 261.31 205.32 271.41 199.53 281.46 193.65 291.39 187.71 301.13 181.41 310.73 175.1 320.2 168.85 329.46 162.39 338.63 156.09 347.75 150.06 356.71 144.03 365.69 138.42 374.76 133.34 383.73 128.52 392.85 124.38 402.17 121.05 411.46 118.2 420.99 116.29 430.78 115.39" stroke-dasharray="8 8" transform="rotate(8.08, 400, 400)" opacity="0.27"></path><path d="M432.48 125.52C441.9 125.23 451.19 125.96 460.31 127.66 469.4 129.91 478.26 133.05 486.8 136.99 495.23 141.34 503.22 146.37 510.67 151.98 517.86 157.79 524.35 164.04 530 170.62 535.25 177.2 539.53 183.99 542.77 190.92 545.53 197.67 547.22 204.46 547.86 211.25 548.22 217.74 547.74 224.19 546.62 230.57 545.23 239.6 544.79 256.89 547.83 265.27 552.18 270.56 558.32 275.92 566.44 281.38 576.66 286.6 588.75 291.98 602.43 297.55 617.31 302.95 632.81 308.6 648.21 314.52 662.83 320.31 675.83 326.42 686.35 332.87 694.01 339.23 698.06 345.96 698.09 353.07 694.58 360.13 687.28 367.59 676.67 375.47 664.17 383.32 650.12 391.61 635.68 400.35 622.61 409.09 611.62 418.09 603.49 427.34 598.98 436.61 597.93 446.15 600.16 455.92 605.7 465.73 613.46 475.78 622.6 486.05 632.88 496.35 642.82 506.84 651.59 517.48 659.14 528.11 664.29 538.84 666.69 549.57 666.68 560.22 663.69 570.77 657.95 581.13 649.97 591.25 639.83 601.02 628.03 610.31 615.02 619.15 601.19 627.32 587.03 634.67 572.75 641.36 558.78 647.04 545.38 651.59 532.57 655.3 520.6 657.75 509.51 658.86 499.21 659.09 489.74 657.99 481.01 655.56 472.94 652.43 465.39 648.15 458.22 642.85 451.47 637.27 444.86 631.03 438.27 624.33 431.88 617.99 425.34 611.66 418.56 605.62 411.85 600.61 404.8 596.34 397.4 593.02 389.99 591.27 382.19 590.76 374.01 591.57 365.82 594.11 357.47 597.83 349.02 602.57 340.61 608.6 332.14 615.22 323.72 622.16 315.4 629.7 307.2 637.05 299.2 643.93 291.39 650.7 283.88 656.58 276.77 661.37 266.73 666.9 249.71 669.58 242.91 666.6 238.8 663.16 235.26 658.41 232.24 652.46 229.26 645.7 226.65 637.93 224.31 629.34 221.7 620.18 219.14 610.39 216.5 600.15 213.28 589.59 209.77 578.75 205.9 567.76 201.27 556.66 196.22 545.54 190.78 534.49 184.7 523.45 178.39 512.54 172.02 501.84 165.45 491.21 159.17 480.79 153.4 470.63 148.05 460.54 143.59 450.69 140.23 441.11 137.74 431.59 136.52 422.3 136.62 413.28 137.58 404.28 139.7 395.51 142.84 387 146.3 378.48 150.23 370.39 154.35 362.72 158.05 355.04 161.54 347.76 164.67 340.88 166.93 333.97 168.72 327.45 170.06 321.31 170.74 312.21 170.95 295.65 171.53 288.11 173 280.65 180.96 266.62 187.81 259.88 193.41 255.16 199.94 250.51 207.27 245.9 215.18 240.95 223.73 235.98 232.78 230.97 242.15 225.58 251.82 220.11 261.67 214.58 271.61 208.65 281.59 202.67 291.54 196.64 301.42 190.31 311.21 183.99 320.89 177.76 330.44 171.36 339.9 165.16 349.27 159.23 358.52 153.34 367.74 147.87 376.94 142.92 386.08 138.25 395.26 134.25 404.5 131.02 413.73 128.27 423.05 126.41 432.47 125.52" stroke-dasharray="9 8" transform="rotate(12.12, 400, 400)" opacity="0.96"></path><path d="M430.12 135.65C439.09 135.35 447.77 136.02 456.13 137.62 464.45 139.74 472.39 142.72 479.88 146.47 487.25 150.63 494.08 155.45 500.27 160.84 506.23 166.45 511.44 172.51 515.84 178.91 519.92 185.35 523.12 192.02 525.41 198.86 527.42 205.56 528.59 212.34 528.99 219.14 529.38 225.7 529.27 232.24 528.88 238.73 529 244.92 529.32 251.07 530.14 257.18 532.18 262.97 535.26 268.74 539.69 274.52 545.87 280.01 553.7 285.55 563.24 291.17 574.47 296.55 587.15 302.06 600.94 307.73 615.44 313.22 630.11 318.92 644.28 324.85 657.39 330.65 668.71 336.74 677.53 343.11 683.63 349.41 686.35 356.04 685.42 363.01 681.37 369.93 673.96 377.23 663.67 384.92 651.77 392.58 638.54 400.66 624.97 409.16 612.63 417.66 602.11 426.4 594.1 435.36 589.3 444.34 587.58 453.56 588.82 462.97 593.14 472.41 599.61 482.04 607.54 491.84 616.79 501.64 626.05 511.57 634.57 521.58 642.35 531.55 648.24 541.53 651.86 551.44 653.5 561.22 652.5 570.83 648.96 580.17 643.35 589.24 635.55 597.89 625.96 606.01 614.99 613.68 602.91 620.65 590.13 626.8 576.9 632.33 563.58 636.88 550.48 640.35 537.61 643.09 525.27 644.66 513.6 645.02 502.47 644.64 492.05 643.07 482.31 640.35 473.13 637.07 464.51 632.81 456.35 627.7 448.6 622.42 441.14 616.61 433.86 610.45 426.81 604.68 419.8 598.98 412.73 593.57 405.76 589.13 398.65 585.38 391.35 582.48 384.07 581.01 376.57 580.64 368.85 581.44 361.12 583.79 353.37 587.21 345.64 591.52 337.94 597.02 330.31 603.06 322.81 609.4 315.39 616.35 308.18 623.15 301.25 629.59 294.46 636.01 288.03 641.67 282.02 646.41 273.53 652.16 259.35 656.37 253.7 654.62 248.68 650.32 240.43 634.81 236.74 624.13 233.94 616.18 231.08 607.55 228.04 598.41 224.37 588.92 220.38 579.07 216.02 568.99 210.94 558.74 205.48 548.39 199.69 538.02 193.37 527.61 186.91 517.26 180.47 507.05 173.96 496.86 167.8 486.83 162.23 477.01 157.13 467.24 152.95 457.68 149.87 448.37 147.65 439.1 146.67 430.05 146.97 421.26 148.1 412.49 150.33 403.96 153.55 395.67 157.09 387.39 161.08 379.53 165.27 372.09 169.08 364.63 172.7 357.56 175.97 350.89 178.43 344.18 180.43 337.84 181.96 331.86 182.9 322.97 183.16 306.66 183.41 299.14 184.23 291.65 190.05 277.35 195.52 270.37 200.11 265.48 205.6 260.64 211.91 255.82 218.82 250.68 226.43 245.52 234.61 240.31 243.2 234.75 252.2 229.12 261.49 223.44 270.97 217.42 280.61 211.36 290.3 205.28 300.03 198.95 309.74 192.66 319.39 186.48 328.99 180.18 338.51 174.08 347.92 168.29 357.28 162.55 366.56 157.25 375.75 152.46 384.91 147.94 394.02 144.09 403.08 140.97 412.13 138.32 421.15 136.52 430.11 135.65" stroke-dasharray="3 7" transform="rotate(16.16, 400, 400)" opacity="0.94"></path><path d="M424.01 145.78C432.45 145.48 440.49 146.09 448.1 147.57 455.67 149.57 462.75 152.38 469.3 155.94 475.74 159.89 481.58 164.48 486.75 169.64 491.75 175.03 496.03 180.86 499.55 187.06 502.89 193.32 505.47 199.84 507.32 206.54 509.09 213.15 510.25 219.87 510.94 226.65 511.83 233.22 512.53 239.81 513.25 246.37 514.66 252.68 516.51 258.96 519.06 265.2 522.85 271.17 527.73 277.12 533.91 283.06 541.63 288.75 550.78 294.47 561.33 300.24 573.15 305.79 586.01 311.45 599.55 317.22 613.36 322.83 626.95 328.6 639.74 334.57 651.29 340.42 660.94 346.51 668.13 352.85 672.77 359.11 674.3 365.66 672.54 372.52 668.05 379.33 660.62 386.48 650.68 393.98 639.4 401.46 626.98 409.32 614.26 417.56 602.63 425.8 592.6 434.25 584.75 442.88 579.72 451.52 577.41 460.35 577.77 469.34 580.95 478.34 586.18 487.48 592.9 496.72 601.05 505.94 609.48 515.24 617.54 524.53 625.27 533.76 631.57 542.93 636.06 551.95 639 560.82 639.68 569.45 638.09 577.74 634.64 585.74 629.1 593.29 621.73 600.27 612.94 606.81 602.83 612.65 591.77 617.68 580.01 622.14 567.83 625.68 555.53 628.21 543.17 630.1 531.04 630.93 519.31 630.67 507.88 629.8 496.99 627.89 486.65 624.99 476.73 621.66 467.33 617.51 458.43 612.64 449.86 607.71 441.67 602.36 433.78 596.75 426.1 591.56 418.61 586.46 411.23 581.66 403.95 577.76 396.7 574.48 389.44 571.98 382.2 570.76 374.91 570.52 367.56 571.3 360.22 573.49 352.99 576.6 345.9 580.51 338.83 585.51 331.94 590.99 325.28 596.76 318.68 603.12 312.35 609.38 306.36 615.36 300.46 621.39 294.95 626.79 289.86 631.41 276.6 639.95 261.13 638.99 257.14 633.84 254.34 629.36 251.64 623.94 248.96 617.69 245.82 610.9 242.52 603.42 238.99 595.38 234.83 586.98 230.34 578.16 225.48 569.05 219.98 559.73 214.16 550.22 208.09 540.63 201.6 530.95 195.07 521.26 188.65 511.64 182.26 502 176.3 492.46 170.98 483.09 166.18 473.73 162.31 464.55 159.53 455.57 157.6 446.62 156.87 437.88 157.36 429.36 158.64 420.86 160.99 412.58 164.27 404.54 167.86 396.5 171.89 388.86 176.12 381.63 180.02 374.37 183.75 367.5 187.17 360.99 189.83 354.44 192.03 348.24 193.79 342.37 195.05 333.61 195.58 317.4 195.66 309.83 195.98 302.23 199.97 287.56 204.15 280.32 207.76 275.26 212.22 270.23 217.48 265.21 223.32 259.89 229.88 254.54 237.06 249.15 244.69 243.45 252.81 237.7 261.3 231.91 270.08 225.82 279.1 219.72 288.27 213.63 297.57 207.33 306.92 201.1 316.26 195.01 325.65 188.83 334.97 182.88 344.2 177.24 353.43 171.69 362.56 166.56 371.57 161.95 380.57 157.61 389.46 153.9 398.2 150.91 406.95 148.37 415.56 146.63 424 145.78" stroke-dasharray="4 1" transform="rotate(20.200000000000003, 400, 400)" opacity="0.50"></path><path d="M414.91 155.91C422.78 155.6 430.18 156.15 437.09 157.53 443.97 159.39 450.31 162.03 456.09 165.38 461.78 169.11 466.88 173.47 471.33 178.37 475.69 183.52 479.4 189.11 482.46 195.07 485.46 201.12 487.87 207.45 489.76 213.98 491.72 220.46 493.33 227.08 494.71 233.77 496.46 240.32 498.26 246.9 500.33 253.48 503.16 259.86 506.59 266.22 510.83 272.55 516.22 278.66 522.67 284.75 530.29 290.83 539.19 296.68 549.25 302.56 560.38 308.47 572.39 314.18 585.05 319.97 597.99 325.85 610.85 331.58 623.2 337.44 634.51 343.46 644.46 349.36 652.49 355.47 658.14 361.78 661.45 368.02 661.93 374.51 659.47 381.27 654.66 387.98 647.28 394.99 637.72 402.3 627.08 409.6 615.44 417.22 603.54 425.18 592.63 433.14 583.08 441.26 575.42 449.51 570.23 457.77 567.43 466.17 567 474.67 569.14 483.17 573.19 491.76 578.71 500.38 585.72 508.97 593.22 517.56 600.65 526.08 608.07 534.52 614.49 542.83 619.52 550.93 623.4 558.86 625.4 566.5 625.45 573.75 623.91 580.72 620.43 587.2 615.19 593.09 608.57 598.58 600.53 603.37 591.38 607.38 581.39 610.89 570.72 613.53 559.65 615.24 548.28 616.42 536.87 616.64 525.6 615.9 514.4 614.67 503.52 612.54 493.05 609.55 482.83 606.27 473.04 602.29 463.71 597.72 454.62 593.18 445.93 588.3 437.6 583.24 429.45 578.61 421.57 574.1 413.92 569.87 406.38 566.49 398.99 563.66 391.73 561.52 384.51 560.53 377.37 560.4 370.32 561.17 363.28 563.19 356.47 566.02 349.92 569.55 343.38 574.07 337.11 579.02 331.15 584.24 325.21 590.02 319.6 595.75 314.36 601.26 309.17 606.88 304.37 611.97 299.97 616.42 288.28 625.37 273.91 626.86 269.78 623.04 266.76 619.56 263.74 615.18 260.64 610 257.05 604.32 253.25 597.94 249.18 590.99 244.51 583.67 239.52 575.9 234.21 567.77 228.36 559.42 222.25 550.82 215.98 542.06 209.42 533.19 202.9 524.24 196.58 515.28 190.39 506.29 184.69 497.34 179.68 488.48 175.22 479.62 171.69 470.89 169.24 462.32 167.6 453.76 167.11 445.37 167.8 437.17 169.22 428.99 171.66 420.99 174.98 413.2 178.6 405.42 182.65 398.01 186.92 390.97 190.87 383.92 194.7 377.21 198.25 370.84 201.1 364.42 203.52 358.32 205.51 352.52 207.13 343.85 208.14 327.61 208.19 319.94 208.2 312.21 210.72 297.12 213.77 289.61 216.47 284.39 219.95 279.18 224.18 273.98 228.93 268.51 234.4 263 240.5 257.47 247.06 251.67 254.15 245.82 261.68 239.96 269.55 233.86 277.73 227.75 286.14 221.69 294.75 215.46 303.48 209.33 312.27 203.36 321.16 197.34 330.05 191.56 338.86 186.1 347.73 180.75 356.49 175.82 365.12 171.39 373.77 167.24 382.27 163.7 390.58 160.84 398.91 158.4 407.03 156.74 414.9 155.91" stroke-dasharray="8 8" transform="rotate(24.24, 400, 400)" opacity="0.22"></path><path d="M403.95 166.04C411.23 165.72 418.03 166.21 424.34 167.49 430.61 169.22 436.37 171.68 441.58 174.82 446.74 178.32 451.35 182.43 455.41 187.06 459.43 191.95 462.92 197.27 465.92 202.97 468.95 208.78 471.57 214.87 473.88 221.19 476.39 227.5 478.75 233.97 481.11 240.53 483.93 247 487 253.52 490.47 260.07 494.73 266.45 499.65 272.85 505.38 279.23 512.13 285.41 519.83 291.6 528.52 297.77 538.2 303.76 548.75 309.75 560.05 315.77 571.87 321.62 583.99 327.52 596.05 333.49 607.77 339.33 618.73 345.26 628.5 351.32 636.87 357.28 643.35 363.4 647.59 369.69 649.7 375.91 649.27 382.33 646.24 388.98 641.19 395.59 633.93 402.45 624.8 409.56 614.78 416.65 603.92 424.02 592.83 431.67 582.61 439.32 573.56 447.08 566.12 454.92 560.84 462.76 557.63 470.69 556.5 478.65 557.68 486.61 560.63 494.59 565 502.54 570.86 510.45 577.35 518.3 584 526.02 590.92 533.64 597.18 541.08 602.43 548.25 606.92 555.26 609.89 561.92 611.22 568.17 611.28 574.15 609.6 579.62 606.3 584.5 601.73 589.02 595.75 592.87 588.57 595.97 580.49 598.65 571.57 600.53 562.04 601.56 552.04 602.15 541.75 601.9 531.38 600.8 520.88 599.33 510.5 597.08 500.35 594.1 490.28 590.93 480.52 587.19 471.13 582.97 461.88 578.83 452.99 574.44 444.46 569.93 436.07 565.85 427.98 561.9 420.19 558.21 412.49 555.31 405.02 552.9 397.79 551.09 390.6 550.32 383.59 550.29 376.78 551.04 369.97 552.9 363.5 555.47 357.38 558.64 351.24 562.69 345.45 567.14 340.01 571.83 334.57 577.06 329.5 582.26 324.79 587.29 317.92 594.86 305.97 607.14 300.82 611.29 291.17 613.98 276.84 607.01 271.49 601.09 267.39 596.44 263.05 591.1 258.44 585.18 253.3 578.92 247.87 572.17 242.18 565.03 236.05 557.66 229.76 549.99 223.39 542.1 216.84 534.09 210.43 525.93 204.31 517.7 198.39 509.41 193.02 501.11 188.35 492.84 184.27 484.55 181.11 476.33 178.99 468.22 177.66 460.11 177.42 452.13 178.28 444.29 179.84 436.47 182.34 428.79 185.69 421.28 189.33 413.77 193.38 406.6 197.64 399.76 201.64 392.9 205.55 386.35 209.21 380.1 212.23 373.81 214.87 367.8 217.09 362.04 219.12 353.42 220.77 337.11 220.94 329.31 220.82 321.43 222.27 305.93 224.38 298.18 226.29 292.82 228.89 287.46 232.17 282.1 235.88 276.5 240.27 270.89 245.28 265.25 250.71 259.38 256.71 253.49 263.17 247.6 269.98 241.52 277.17 235.46 284.64 229.47 292.36 223.35 300.27 217.36 308.29 211.54 316.46 205.7 324.67 200.13 332.86 194.87 341.14 189.74 349.35 185.02 357.43 180.8 365.56 176.84 373.53 173.47 381.3 170.76 389.09 168.44 396.65 166.85 403.94 166.05" stroke-dasharray="5 7" transform="rotate(28.28, 400, 400)" opacity="0.63"></path><path d="M392.49 176.18C399.2 175.85 405.47 176.28 411.28 177.45 419.74 180.18 434.29 189.44 440.42 195.71 444.39 200.32 447.96 205.35 451.21 210.76 454.57 216.3 457.7 222.13 460.69 228.2 463.97 234.29 467.27 240.56 470.73 246.95 474.7 253.28 479.02 259.69 483.83 266.14 489.36 272.48 495.56 278.84 502.51 285.21 510.28 291.42 518.86 297.64 528.2 303.86 538.25 309.92 548.89 315.99 559.96 322.07 571.25 328.01 582.54 333.99 593.52 340.02 603.93 345.93 613.44 351.92 621.67 358 628.51 363.99 633.54 370.1 636.48 376.34 637.54 382.53 636.33 388.88 632.85 395.4 627.67 401.89 620.59 408.58 611.92 415.47 602.53 422.34 592.43 429.44 582.11 436.75 572.57 444.07 564.02 451.43 556.84 458.82 551.52 466.22 547.98 473.63 546.26 481.02 546.6 488.41 548.53 495.75 551.81 503.01 556.53 510.22 561.97 517.31 567.75 524.22 573.99 531.02 579.86 537.6 585.06 543.87 591.61 552.84 596.88 568.34 595.15 574.58 592.43 578.24 588.36 581.25 583.1 583.58 576.95 585.55 569.86 586.79 562.04 587.28 553.65 587.41 544.79 586.81 535.64 585.47 526.24 583.86 516.76 581.59 507.32 578.7 497.83 575.72 488.51 572.26 479.42 568.41 470.39 564.71 461.64 560.81 453.19 556.83 444.83 553.28 436.75 549.86 428.99 546.69 421.29 544.23 413.86 542.2 406.72 540.7 399.6 540.12 392.73 540.18 386.13 540.91 379.52 542.62 373.32 544.93 367.49 547.76 361.66 551.39 356.19 555.36 351.11 559.54 345.99 564.24 341.24 568.93 336.85 573.48 330.36 580.42 318.88 592.03 313.74 596.18 303.52 599.81 287.4 595.65 281.25 591.02 276.63 587.3 271.78 582.92 266.68 577.97 261.13 572.7 255.35 566.94 249.38 560.75 243.09 554.35 236.71 547.61 230.35 540.6 223.93 533.46 217.73 526.12 211.87 518.66 206.3 511.12 201.31 503.51 197.04 495.87 193.37 488.21 190.6 480.55 188.82 472.95 187.78 465.35 187.78 457.81 188.82 450.37 190.49 442.94 193.05 435.61 196.41 428.41 200.03 421.2 204.06 414.28 208.3 407.65 212.32 400.99 216.27 394.61 220.03 388.47 223.21 382.3 226.05 376.37 228.5 370.65 230.96 362.07 233.38 345.67 233.79 337.75 233.72 329.75 234.52 313.89 235.91 305.94 237.19 300.47 239.05 294.99 241.49 289.52 244.26 283.85 247.65 278.16 251.63 272.47 255.97 266.59 260.86 260.7 266.23 254.84 271.92 248.82 278.03 242.86 284.47 236.98 291.15 231.02 298.09 225.19 305.2 219.56 312.48 213.94 319.85 208.59 327.26 203.56 334.78 198.66 342.26 194.18 349.67 190.17 357.13 186.42 364.46 183.23 371.62 180.66 378.8 178.46 385.77 176.95 392.48 176.18" stroke-dasharray="5 6" transform="rotate(32.32, 400, 400)" opacity="0.43"></path><path d="M381.97 186.31C391.05 186.16 407.34 189.92 414.55 193.67 419.25 196.7 423.62 200.27 427.68 204.34 431.8 208.65 435.69 213.38 439.4 218.47 443.27 223.71 447.07 229.25 450.89 235.03 455.01 240.86 459.31 246.89 463.86 253.05 468.89 259.19 474.34 265.43 480.29 271.74 486.85 277.96 494.02 284.23 501.82 290.53 510.25 296.7 519.3 302.9 528.89 309.09 538.9 315.17 549.26 321.25 559.77 327.35 570.24 333.33 580.48 339.34 590.19 345.37 599.22 351.32 607.25 357.31 613.97 363.37 619.36 369.36 623.06 375.44 624.85 381.61 625 387.73 623.15 393.98 619.34 400.35 614.11 406.69 607.26 413.18 599.07 419.82 590.32 426.45 580.95 433.25 571.4 440.2 562.52 447.15 554.48 454.09 547.59 461.01 542.28 467.92 538.5 474.8 536.28 481.6 535.86 488.39 536.87 495.09 539.13 501.64 542.75 508.15 547.14 514.48 551.97 520.6 557.41 526.61 562.72 532.35 567.62 537.77 578.02 551.93 579.58 567.49 574.87 570.31 570.56 571.7 565.28 572.43 559.19 572.5 552.52 572.3 545.25 571.46 537.54 569.99 529.5 568.34 521.21 566.13 512.8 563.41 504.24 560.66 495.7 557.52 487.25 554.08 478.78 550.81 470.48 547.4 462.39 543.94 454.34 540.89 446.52 537.98 438.98 535.28 431.47 533.24 424.22 531.57 417.25 530.35 410.3 529.94 403.62 530.08 397.21 530.78 390.79 532.35 384.79 534.42 379.18 536.93 373.55 540.16 368.29 543.67 363.39 547.38 358.45 551.56 353.85 555.74 349.57 559.83 343.18 566.13 331.54 576.93 326.12 580.99 320.54 584.1 309.25 586.4 303.28 585.5 296.66 583.36 281.98 575.21 273.84 569.38 267.99 565.03 261.97 560.18 255.84 554.91 249.5 549.43 243.17 543.58 236.94 537.44 230.75 531.17 224.84 524.65 219.34 517.97 214.17 511.2 209.61 504.3 205.78 497.33 202.53 490.32 200.16 483.27 198.72 476.22 197.99 469.15 198.21 462.1 199.4 455.1 201.18 448.1 203.78 441.15 207.12 434.27 210.72 427.39 214.69 420.75 218.89 414.33 222.91 407.9 226.89 401.69 230.71 395.68 234.02 389.64 237.04 383.79 239.72 378.12 242.59 369.61 245.9 353.16 246.65 345.15 246.78 337.05 247.36 320.94 248.28 312.85 249.09 307.31 250.36 301.77 252.12 296.23 254.11 290.53 256.64 284.83 259.69 279.14 263.02 273.29 266.88 267.47 271.2 261.68 275.8 255.78 280.82 249.95 286.2 244.23 291.81 238.46 297.71 232.84 303.83 227.43 310.11 222.06 316.56 216.95 323.09 212.17 329.73 207.54 336.4 203.3 343.04 199.51 349.75 195.98 356.38 192.98 362.89 190.56 369.42 188.48 375.79 187.05 381.96 186.31" stroke-dasharray="3 3" transform="rotate(36.36, 400, 400)" opacity="0.46"></path><path d="M373.7 196.44C382.1 196.26 397.59 199.66 404.71 203.1 414.13 208.96 422.86 216.77 431.23 226.12 440.33 236.07 449.89 247.12 460.47 258.87 472.72 270.65 486.79 282.84 502.83 295.2 520.56 307.26 539.69 319.42 559.1 331.59 577.6 343.4 593.68 355.33 605.38 367.38 612.21 379.18 612.46 391.28 605.72 403.67 600.53 409.84 593.96 416.11 586.27 422.47 578.15 428.82 569.5 435.29 560.69 441.85 552.46 448.41 544.92 454.91 538.34 461.33 533.11 467.75 529.15 474.08 526.53 480.29 525.96 492.65 529.92 504.38 536.79 515.17 546.36 525.59 555.26 534.74 561.82 542.24 567.03 551.4 553.17 557.66 536.45 554.48 523 551.17 508.34 546.19 493.35 540 478.02 534.58 462.99 529.04 448.69 524.01 441.57 522.34 434.64 521 427.96 520.03 421.28 519.77 414.83 519.97 408.63 520.65 402.43 522.08 396.6 523.93 391.13 526.15 385.64 528.99 380.49 532.08 375.66 535.34 365.85 543.09 357.12 550.58 349.26 557.13 340.85 563.75 332.86 568.44 324.99 570.88 316.04 572.35 306.7 571.26 296.78 567.72 285.57 563.06 273.76 556.2 261.64 547.52 249.11 538.09 237.21 527.28 226.77 515.53 217.79 503.44 211.55 490.75 208.72 477.8 208.27 471.29 208.72 464.76 210.05 458.21 211.91 451.67 214.53 445.12 217.83 438.6 221.38 432.08 225.29 425.73 229.42 419.56 233.4 413.37 237.38 407.35 241.24 401.5 247.56 389.7 252.74 378.44 256.66 367.65 258.36 356.58 259.41 345.78 260.34 335.2 260.42 324.16 261.49 313.16 263.94 302.23 266.88 290.78 271.69 279.36 278.26 268.14 285.7 256.63 294.7 245.53 304.82 235.17 315.54 225.06 326.96 216.14 338.63 208.83 344.54 205.52 350.46 202.71 356.32 200.44 362.2 198.5 368 197.15 373.69 196.44" stroke-dasharray="8 3" transform="rotate(40.400000000000006, 400, 400)" opacity="0.23"></path><path d="M368.7 206.57C379.23 206.24 389.18 208.31 398.61 212.53 408.18 217.88 417.57 225.07 427.05 233.72 437.24 243 448.19 253.36 460.24 264.46 473.62 275.68 488.56 287.38 504.93 299.3 522.25 311.04 540.19 322.92 557.65 334.82 573.68 346.48 586.95 358.22 595.9 370 600.47 381.61 599.24 393.4 592.01 405.33 581.09 417.21 566.4 429.34 549.97 441.63 535.55 453.92 524.17 465.79 517 477.06 515.16 488.23 517.31 498.63 522.26 508 530.06 517.03 537.85 524.76 544.18 530.88 550.8 538.25 544.25 542.32 531.98 539.01 521.52 535.97 509.48 531.55 496.65 526.18 483.33 521.63 469.86 517.02 456.72 512.86 443.55 510.75 430.89 509.89 418.98 510.51 407.06 513.75 396.35 518.19 386.71 523.42 376.88 530.22 367.87 536.81 359.46 542.65 350.52 548.7 341.77 553.16 332.96 555.71 323.22 557.58 313.06 557.23 302.4 554.7 290.81 551.28 278.84 545.84 266.87 538.65 254.87 530.81 243.73 521.57 234.23 511.28 226.25 500.68 220.94 489.34 218.83 477.54 219.02 465.67 222.37 453.5 228.55 441.21 235.59 428.93 243.59 417.1 251.62 405.76 258.16 394.34 263.75 383.28 268.21 372.57 270.61 361.63 272.28 350.87 273.64 340.28 273.93 329.31 274.85 318.38 276.76 307.53 278.78 296.3 282.34 285.15 287.43 274.26 293.11 263.21 300.27 252.62 308.61 242.8 317.42 233.29 327.09 224.94 337.26 218.12 347.6 212.22 358.17 208.26 368.69 206.57" stroke-dasharray="10 10" transform="rotate(44.44, 400, 400)" opacity="0.37"></path><path d="M367.6 216.7C377.4 216.34 387.08 218.17 396.67 221.98 406.42 226.82 416.39 233.37 426.78 241.3 437.78 249.86 449.67 259.48 462.6 269.85 476.47 280.43 491.53 291.51 507.47 302.87 523.73 314.16 539.96 325.62 555.13 337.12 568.57 348.46 579.11 359.87 585.55 371.27 588.17 382.56 585.73 393.93 578.24 405.32 567.82 416.67 554.28 428.12 539.26 439.56 525.95 450.99 515.09 461.84 507.68 471.96 504.78 482 505.32 491.15 508.48 499.22 514.45 507 520.87 513.48 526.53 518.45 533.05 525.62 511.7 519.11 496.4 512.67 485.28 508.94 473.61 505.19 461.84 501.84 449.99 500.27 438.29 499.72 426.96 500.38 415.63 503.28 405.16 507.13 395.46 511.62 385.59 517.52 376.25 523.25 367.26 528.37 357.81 533.8 348.37 537.92 338.77 540.45 328.44 542.53 317.72 542.7 306.66 540.97 294.99 538.56 283.2 534.31 271.68 528.42 260.43 521.99 250.25 514.18 241.78 505.27 234.86 496.07 230.48 486.03 229.06 475.38 229.7 464.65 233.19 453.47 239.26 441.99 246.12 430.5 253.91 419.27 261.84 408.35 268.52 397.38 274.45 386.61 279.41 376.09 282.5 365.38 284.85 354.77 286.77 344.29 287.5 333.53 288.55 322.79 290.28 312.16 291.79 301.27 294.51 290.51 298.51 280.06 302.81 269.55 308.47 259.54 315.3 250.33 322.45 241.46 330.56 233.7 339.4 227.4 348.34 221.94 357.8 218.28 367.6 216.7" stroke-dasharray="8 4" transform="rotate(48.48, 400, 400)" opacity="0.34"></path><path d="M370.54 226.83C379.71 226.45 389.14 228.05 398.81 231.45 408.65 235.78 418.99 241.68 429.93 248.89 441.32 256.7 453.61 265.53 466.76 275.12 480.46 284.95 494.95 295.33 509.8 306.01 524.48 316.71 538.63 327.62 551.32 338.58 562.17 349.46 570.16 360.41 574.36 371.3 575.33 382.13 571.99 392.97 564.42 403.72 554.6 414.47 542.2 425.18 528.54 435.72 516.34 446.26 506.06 456.11 498.56 465.14 494.8 474.09 493.96 482.11 495.46 489.02 508.93 506.29 478.41 495.04 463.22 490.93 452.83 489.85 442.21 489.58 431.58 490.25 420.96 492.82 410.8 496.14 401.09 499.94 391.26 504.99 381.67 509.9 372.23 514.3 362.42 519.08 352.49 522.78 342.37 525.17 331.75 527.29 320.82 527.8 309.7 526.67 298.31 525.03 287.02 521.75 276.23 516.97 265.95 511.76 256.85 505.22 249.51 497.56 243.66 489.66 240.19 480.85 239.42 471.32 240.46 461.72 244.05 451.53 249.98 440.89 256.6 430.25 264.14 419.67 271.89 409.26 278.65 398.81 284.83 388.44 290.22 378.21 293.96 367.85 297 357.52 299.55 347.28 300.89 336.85 302.32 326.45 304.15 316.18 305.54 305.75 307.83 295.49 311.14 285.58 314.51 275.7 319.05 266.35 324.72 257.78 330.54 249.58 337.38 242.45 345.09 236.67 352.86 231.67 361.37 228.3 370.54 226.83" stroke-dasharray="8 6" transform="rotate(52.52, 400, 400)" opacity="0.29"></path><path d="M377.15 236.97C385.76 236.56 394.89 237.94 404.49 240.94 414.23 244.77 424.62 250.03 435.64 256.5 446.97 263.54 459.07 271.55 471.79 280.29 484.72 289.32 498.05 298.9 511.29 308.81 524.03 318.8 535.88 329.03 546.05 339.32 554.43 349.6 560.1 359.94 562.39 370.2 562.02 380.45 558.04 390.65 550.58 400.69 541.43 410.74 530.17 420.65 517.83 430.29 506.71 439.93 497.07 448.8 489.61 456.81 484.22 468.25 487.39 485.67 492.53 491.23 496.79 493.24 473.28 483.24 460.47 480.14 451.56 479.48 442.1 479.44 432.27 480.12 422.44 482.39 412.73 485.21 403.16 488.39 393.52 492.65 383.88 496.78 374.21 500.48 364.3 504.6 354.19 507.83 343.91 509.97 333.34 512 322.57 512.68 311.8 511.95 301.02 510.88 290.52 508.37 280.71 504.51 271.56 500.31 263.65 494.87 257.47 488.33 252.69 481.6 250.09 473.93 249.92 465.47 251.3 456.94 254.96 447.74 260.69 437.97 267.05 428.2 274.28 418.34 281.79 408.51 288.52 398.67 294.86 388.8 300.58 378.98 304.89 369.09 308.59 359.18 311.79 349.33 313.83 339.37 315.81 329.43 317.99 319.65 319.58 309.8 321.79 300.15 324.79 290.88 327.65 281.7 331.5 273.06 336.36 265.18 341.24 257.68 347.13 251.18 353.96 245.93 360.8 241.38 368.54 238.32 377.15 236.97" stroke-dasharray="8 10" transform="rotate(56.56, 400, 400)" opacity="0.38"></path><path d="M386.6 247.1C394.68 246.68 403.42 247.85 412.72 250.46 422.12 253.79 432.19 258.43 442.83 264.16 453.62 270.41 464.99 277.58 476.7 285.45 488.37 293.61 500.09 302.32 511.38 311.37 521.98 320.55 531.47 329.98 539.21 339.5 545.33 349.05 548.97 358.66 549.69 368.19 548.3 377.72 543.92 387.18 536.73 396.44 528.32 405.71 518.18 414.78 507.12 423.51 497.06 432.23 488.1 440.17 480.82 447.24 481.37 476.88 479.62 477.19 472.86 474.02 467.56 472.46 461.1 470.88 453.69 469.46 446.17 469.16 437.88 469.32 428.94 469.99 420 471.98 410.87 474.35 401.65 476.96 392.4 480.49 382.96 483.89 373.38 486.92 363.68 490.38 353.76 493.1 343.71 494.93 333.57 496.76 323.35 497.47 313.28 496.99 303.4 496.29 293.96 494.36 285.32 491.22 277.41 487.84 270.76 483.33 265.74 477.78 261.99 472.07 260.21 465.44 260.57 457.99 262.24 450.48 265.91 442.24 271.4 433.35 277.45 424.47 284.32 415.39 291.53 406.23 298.14 397.07 304.53 387.81 310.46 378.53 315.24 369.22 319.51 359.85 323.34 350.53 326.1 341.16 328.72 331.83 331.39 322.66 333.42 313.5 335.85 304.55 338.85 295.99 341.58 287.58 345.11 279.7 349.5 272.55 353.82 265.77 359.06 259.91 365.25 255.19 371.41 251.1 378.52 248.34 386.6 247.1" stroke-dasharray="3 1" transform="rotate(60.599999999999994, 400, 400)" opacity="0.38"></path><path d="M397.72 257.23C405.28 256.8 413.48 257.77 422.24 260.01 431.04 262.87 440.43 266.89 450.25 271.9 460.1 277.37 470.29 283.68 480.57 290.65 490.63 297.9 500.46 305.69 509.62 313.82 518.04 322.1 525.25 330.65 530.78 339.29 534.9 348 536.86 356.77 536.35 365.47 534.23 374.19 529.69 382.83 522.9 391.24 515.26 399.67 506.22 407.87 496.39 415.69 487.37 423.51 479.15 430.55 472.17 436.76 465.84 462.72 464.02 464.02 458.89 461.82 454.85 460.84 449.67 459.82 443.47 458.9 437.18 458.9 430 459.2 422 459.86 414 461.58 405.61 463.55 396.96 465.64 388.31 468.52 379.37 471.24 370.23 473.65 361.07 476.46 351.71 478.67 342.28 480.15 332.91 481.69 323.58 482.32 314.53 481.95 305.79 481.48 297.59 479.94 290.25 477.37 280.96 472.75 271.08 458.49 271.38 449.12 273.28 442.55 276.9 435.24 282.12 427.25 287.81 419.26 294.27 411 301.1 402.59 307.5 394.19 313.82 385.62 319.84 377.01 324.95 368.38 329.67 359.69 334.02 351.03 337.46 342.37 340.73 333.75 343.95 325.31 346.55 316.92 349.39 308.76 352.61 300.99 355.51 293.4 359.01 286.3 363.21 279.9 367.28 273.85 372.15 268.64 377.89 264.46 383.57 260.82 390.17 258.35 397.72 257.23" stroke-dasharray="6 2" transform="rotate(64.64, 400, 400)" opacity="0.85"></path><path d="M409.13 267.36C416.11 266.93 423.65 267.72 431.62 269.61 439.61 272.01 448.02 275.44 456.67 279.73 465.27 284.43 473.98 289.89 482.55 295.95 490.82 302.28 498.66 309.11 505.7 316.28 512.03 323.6 517.17 331.19 520.76 338.89 523.23 346.67 523.85 354.52 522.45 362.3 519.87 370.13 515.37 377.87 509.11 385.39 502.28 392.93 494.32 400.23 485.68 407.16 477.68 414.08 470.22 420.28 463.64 425.71 451.05 448.81 447.53 451.3 443.41 449.96 438.1 449.22 422.44 448.89 412.32 449.73 405.28 451.2 397.75 452.8 389.89 454.44 382.04 456.72 373.87 458.84 365.51 460.68 357.19 462.87 348.71 464.58 340.25 465.68 331.94 466.89 323.77 467.36 315.96 467.01 308.53 466.62 301.7 465.34 295.73 463.18 288.36 459.35 281.36 447.25 282.35 439.14 284.41 433.45 287.93 427.03 292.83 419.94 298.13 412.84 304.13 405.43 310.51 397.84 316.61 390.25 322.74 382.48 328.7 374.62 333.99 366.78 339.01 358.87 343.74 350.98 347.74 343.13 351.58 335.32 355.34 327.7 358.53 320.16 361.85 312.85 365.41 305.93 368.64 299.18 372.31 292.91 376.5 287.28 380.54 281.96 385.23 277.39 390.64 273.73 395.99 270.54 402.14 268.37 409.13 267.36" stroke-dasharray="11 11" transform="rotate(68.68, 400, 400)" opacity="0.12"></path><path d="M419.4 277.49C432.12 277.13 446.36 280.81 460.99 287.69 475.22 295.92 488.72 306.67 499.43 318.86 507.74 331.67 511.1 345.38 508.1 358.97 501.84 372.76 490.17 386.2 474.96 398.31 461.74 410.42 450.53 419.88 442.52 426.54 438.03 435.03 434.17 439.86 427.63 438.46 422.16 438.79 413.28 439.08 401.1 439.59 388.91 442.74 374.87 445.72 360.14 448.02 345.74 451.56 331.2 453.16 318.02 452.32 306.35 451.51 297.48 447.72 293.01 440.94 291.47 433.98 294.97 424.15 303.54 411.73 313.4 399.31 325.16 385.64 337.06 371.61 347.04 357.69 356.44 343.5 365.23 329.96 372.18 316.8 379.69 304.68 388.38 294.69 396.44 285.8 406.67 279.73 419.4 277.49" stroke-dasharray="9 9" transform="rotate(72.72, 400, 400)" opacity="0.34"></path><path d="M427.25 287.62C438.58 287.19 450.6 290.15 462.32 295.8 473.61 302.54 483.61 311.48 490.81 321.72 496.14 332.5 497.27 344.15 493.38 355.77 487.39 367.58 477.23 379.11 464.25 389.53 452.75 399.95 442.4 408.14 434.21 413.99 427.5 421.65 419.38 427.43 412.76 427.31 407.76 428.2 400.11 428.88 389.74 429.46 379.38 432.03 367.49 434.21 355.15 435.67 343.2 438.17 331.41 439.08 321.1 438.02 312.13 437.12 305.73 433.79 303.09 427.98 302.67 422.07 306.38 413.69 314.26 403 323.16 392.31 333.84 380.45 344.9 368.25 354.72 356.17 364.31 343.88 373.44 332.21 381.2 320.93 389.27 310.61 398 302.17 406.22 294.66 415.91 289.53 427.25 287.62" stroke-dasharray="3 3" transform="rotate(76.76, 400, 400)" opacity="0.16"></path><path d="M431.7 297.75C441.51 297.28 451.25 299.57 460.16 304.08 468.68 309.42 475.62 316.62 479.95 324.96 482.99 333.74 482.62 343.33 478.42 352.98 472.97 362.79 464.38 372.44 453.54 381.23 443.76 390.01 434.48 397.02 426.54 402.17 418.48 409.1 406.87 415.64 399.91 416.51 395.05 417.78 388.33 418.72 379.67 419.33 371 421.37 361.34 422.87 351.55 423.66 342.11 425.26 333.1 425.54 325.55 424.27 316.97 421.71 316.02 406.68 324.97 394.14 332.83 385.13 342.29 375.12 352.27 364.82 361.52 354.64 370.84 344.32 379.85 334.59 387.95 325.2 396.22 316.67 404.73 309.75 412.89 303.56 421.89 299.34 431.7 297.75" stroke-dasharray="10 3" transform="rotate(80.80000000000001, 400, 400)" opacity="0.69"></path><path d="M432.21 307.89C440.39 307.4 447.93 309.1 454.32 312.55 460.43 316.6 464.9 322.17 467.13 328.71 468.56 335.58 467.34 343.17 463.31 350.89 458.63 358.74 451.62 366.54 442.82 373.76 434.76 380.97 426.74 386.86 419.44 391.35 410.92 397.54 397.13 404.49 389.92 406.05 385.12 407.53 379.2 408.6 372.12 409.2 365.04 410.77 357.53 411.72 350.21 411.98 333.05 410.66 327.73 395.84 335.68 385.54 342.41 378.15 350.52 369.99 359.19 361.62 367.51 353.36 376.08 345.03 384.48 337.22 392.36 329.7 400.33 322.91 408.26 317.44 415.97 312.51 424.02 309.16 432.21 307.89" stroke-dasharray="8 11" transform="rotate(84.84, 400, 400)" opacity="0.82"></path><path d="M428.7 318.02C441.69 317.61 450.53 323.6 452.73 333.08 453.25 343.47 445.98 356.05 432.11 367.46 420.04 378.85 407.63 386.7 397.08 390.79 388.83 395.75 379.26 398.59 368.05 399.07 351.51 402 335.79 392.78 346.4 377.58 357.6 365.94 372.65 352.3 387.47 340.24 401.32 328.99 415.7 320.48 428.7 318.02" stroke-dasharray="8 5" transform="rotate(88.88, 400, 400)" opacity="0.49"></path><path d="M421.61 328.15C433.96 329.63 434.25 349.7 421.39 362.61 412.3 371.07 402.1 377.42 392.89 381.26 384.89 385.61 376.36 388.36 367.96 388.94 356.17 390.58 348.23 382.05 357.11 370.62 365.71 362.02 377.37 352.24 389.05 343.77 400.43 335.8 412.02 329.85 421.61 328.15" stroke-dasharray="3 0" transform="rotate(92.92, 400, 400)" opacity="0.61"></path><path d="M411.83 338.28C424.33 337.86 423.89 348.2 410.68 359.42 399.2 370.63 383.18 378.35 371.86 378.81 360.53 381.61 357.5 376.31 367.83 364.97 379.7 353.62 399.32 340.86 411.83 338.28" stroke-dasharray="10 5" transform="rotate(96.96, 400, 400)" opacity="0.25"></path></g></svg>